<svg width="32" height="33" viewBox="0 0 32 33" fill="none" xmlns="http://www.w3.org/2000/svg">
<rect y="0.585938" width="32" height="32" rx="16" fill="#FF83AF"/>
<path d="M24 16.5859C24 14.3803 22.2211 12.5859 20.0346 12.5859C18.9753 12.5859 17.9796 13.002 17.2306 13.7575L13.196 17.8273C12.8673 18.1588 12.4303 18.3414 11.9654 18.3414C11.0058 18.3414 10.2251 17.5539 10.2251 16.5859C10.2251 15.6179 11.0058 14.8305 11.9654 14.8305C12.4303 14.8305 12.8673 15.0131 13.196 15.3446L13.7637 15.9173L15.3371 14.3302L14.7694 13.7575C14.0204 13.002 13.0246 12.5859 11.9654 12.5859C9.77887 12.5859 8 14.3803 8 16.5859C8 18.7916 9.77887 20.5859 11.9654 20.5859C13.0247 20.5859 14.0204 20.1699 14.7694 19.4143L18.804 15.3446C19.1327 15.013 19.5697 14.8304 20.0346 14.8304C20.9942 14.8304 21.7749 15.6179 21.7749 16.5859C21.7749 17.5539 20.9942 18.3414 20.0346 18.3414C19.5697 18.3414 19.1327 18.1588 18.804 17.8272L18.2363 17.2546L16.6629 18.8416L17.2306 19.4143C17.9796 20.1698 18.9754 20.5859 20.0346 20.5859C22.2211 20.5859 24 18.7916 24 16.5859Z" fill="#FFFDFA"/>
</svg>
