<svg width="62" height="62" viewBox="0 0 62 62" fill="none" xmlns="http://www.w3.org/2000/svg">
<rect width="62" height="62" rx="20" fill="#E16D3B"/>
<path d="M41.9041 26.8623C41.8398 26.7464 41.7465 26.6499 41.6337 26.5828C41.521 26.5157 41.3929 26.4804 41.2624 26.4803H31.5997L33.2197 13.8369C33.2371 13.6677 33.1982 13.4974 33.1093 13.3535C33.0205 13.2096 32.8868 13.1004 32.7298 13.0436C32.5728 12.9867 32.4016 12.9855 32.2439 13.0401C32.0861 13.0946 31.9509 13.2019 31.8601 13.3445L20.1093 34.3737C20.0405 34.4879 20.0029 34.6187 20.0002 34.7527C19.9974 34.8867 20.0297 35.019 20.0938 35.1359C20.1578 35.2529 20.2512 35.3503 20.3643 35.4182C20.4775 35.486 20.6063 35.5218 20.7375 35.5218H30.2558L28.972 48.1843C28.9594 48.3529 29.0023 48.521 29.094 48.6618C29.1857 48.8026 29.3209 48.9081 29.478 48.9614C29.6351 49.0147 29.8052 49.0128 29.9611 48.9559C30.1171 48.8991 30.25 48.7907 30.3386 48.6478L41.8953 27.6209C41.9623 27.5065 41.9984 27.3761 41.9999 27.2428C42.0015 27.1096 41.9684 26.9783 41.9041 26.8623Z" fill="#FFFDFA"/>
</svg>
