<svg width="27" height="23" viewBox="0 0 27 23" fill="none" xmlns="http://www.w3.org/2000/svg">
<path d="M25.4418 2.90276C24.4751 1.58922 23.1095 0.64986 21.5643 0.235582C20.0192 -0.178696 18.3843 -0.043843 16.9223 0.618476C15.6137 1.20249 14.4465 2.18712 13.5 3.49379C12.5535 2.18393 11.3863 1.19929 10.0777 0.618476C8.61566 -0.043843 6.98075 -0.178696 5.43565 0.235582C3.89055 0.64986 2.52494 1.58922 1.55822 2.90276C0.538764 4.28419 0 6.01066 0 7.89495C0 10.6067 1.56378 13.5817 4.64746 16.7407C7.16025 19.3138 10.1296 21.4211 11.6755 22.4479C12.2202 22.8084 12.8533 23 13.5 23C14.1467 23 14.7798 22.8084 15.3245 22.4479C16.8691 21.4211 19.8397 19.3138 22.3525 16.7407C25.4362 13.583 27 10.6067 27 7.89495C27 6.01066 26.4612 4.28419 25.4418 2.90276Z" fill="#FF545A"/>
</svg>
