<svg width="70" height="64" viewBox="0 0 70 64" fill="none" xmlns="http://www.w3.org/2000/svg">
<g clip-path="url(#clip0_83_1012)">
<path d="M52.0587 17.0519C52.0587 7.64929 44.4064 0 35 0C25.5937 0 17.9414 7.64929 17.9414 17.0519C17.9414 26.4545 25.5937 34.1038 35 34.1038C44.4064 34.1038 52.0587 26.4545 52.0587 17.0519ZM35 30.5384C27.5598 30.5384 21.5065 24.4875 21.5065 17.0519C21.5065 9.61625 27.5598 3.56369 35 3.56369C42.4403 3.56369 48.492 9.61462 48.492 17.0519C48.492 24.4891 42.4386 30.5384 35 30.5384Z" fill="white"/>
<path d="M26.124 41.3878V37.6219H22.5589V41.3878C22.5589 44.1572 20.3056 46.4096 17.5351 46.4096C14.7646 46.4096 12.5113 44.1572 12.5113 41.3878V36.03C12.5113 32.5821 9.70491 29.7769 6.25565 29.7769C2.8064 29.7769 0 32.5821 0 36.03V37.7915H3.5651V36.03C3.5651 34.5475 4.77251 33.3405 6.25565 33.3405C7.7388 33.3405 8.9462 34.5475 8.9462 36.03V41.3878C8.9462 46.1225 12.8001 49.9733 17.5351 49.9733C22.2701 49.9733 26.124 46.1209 26.124 41.3878Z" fill="white"/>
<path d="M29.6616 55.0422C29.6616 57.8932 27.3414 60.2124 24.4893 60.2124C21.6372 60.2124 19.3171 57.8932 19.3171 55.0422V53.47H15.752V55.0422C15.752 59.8585 19.6727 63.7777 24.4909 63.7777C29.3091 63.7777 33.2299 59.8585 33.2299 55.0422V37.6201H29.6648V55.0422H29.6616Z" fill="white"/>
<path d="M63.7436 29.7769C60.2944 29.7769 57.488 32.5821 57.488 36.03V41.3878C57.488 44.1572 55.2347 46.4096 52.4642 46.4096C49.6937 46.4096 47.4421 44.1572 47.4421 41.3878V37.6219H43.877V41.3878C43.877 46.1225 47.7292 49.9733 52.4658 49.9733C57.2024 49.9733 61.0547 46.1209 61.0547 41.3878V36.03C61.0547 34.5475 62.2621 33.3405 63.7453 33.3405C65.2284 33.3405 66.4358 34.5475 66.4358 36.03V37.7915H70.0009V36.03C70.0009 32.5821 67.1945 29.7769 63.7453 29.7769H63.7436Z" fill="white"/>
<path d="M50.683 55.0422C50.683 57.8932 48.3629 60.2124 45.5108 60.2124C42.6587 60.2124 40.3385 57.8932 40.3385 55.0422V37.6201H36.7734V55.0422C36.7734 59.8585 40.6942 63.7777 45.5124 63.7777C50.3306 63.7777 54.2514 59.8585 54.2514 55.0422V53.47H50.6863V55.0422H50.683Z" fill="white"/>
</g>
<defs>
<clipPath id="clip0_83_1012">
<rect width="70" height="63.7778" fill="white"/>
</clipPath>
</defs>
</svg>
