<svg width="62" height="62" viewBox="0 0 62 62" fill="none" xmlns="http://www.w3.org/2000/svg">
<rect width="62" height="62" rx="20" fill="#FFCF4E"/>
<path d="M15.1427 36.2966C14.4332 31.6831 13.7234 27.0695 13.0133 22.456C12.9786 22.2293 13.0122 21.9974 13.1099 21.7899C13.2075 21.5824 13.3647 21.4086 13.5614 21.2907C13.7581 21.1729 13.9855 21.1162 14.2145 21.128C14.4435 21.1398 14.6639 21.2195 14.8475 21.3569L21.4818 26.3321C21.6542 26.4615 21.8512 26.5543 22.0607 26.6049C22.2702 26.6555 22.4878 26.6629 22.7002 26.6265C22.9126 26.5901 23.1154 26.5108 23.2961 26.3934C23.4769 26.276 23.6317 26.1229 23.7513 25.9436L29.2749 17.6547C29.4095 17.4533 29.5918 17.2881 29.8055 17.1739C30.0192 17.0597 30.2577 17 30.5 17C30.7423 17 30.9808 17.0597 31.1945 17.1739C31.4082 17.2881 31.5905 17.4533 31.7251 17.6547L37.2487 25.9389C37.3683 26.1183 37.5231 26.2713 37.7039 26.3887C37.8846 26.5062 38.0874 26.5855 38.2998 26.6219C38.5122 26.6582 38.7298 26.6509 38.9393 26.6003C39.1488 26.5496 39.3458 26.4568 39.5182 26.3275L46.1525 21.3523C46.3361 21.2148 46.5565 21.1351 46.7855 21.1233C47.0145 21.1115 47.2419 21.1682 47.4386 21.2861C47.6353 21.404 47.7925 21.5777 47.8901 21.7853C47.9878 21.9928 48.0214 22.2247 47.9868 22.4514C47.2766 27.0649 46.5668 31.6784 45.8573 36.2919L15.1427 36.2966Z" fill="#FFFDFA"/>
<path d="M15.1426 38.8564H45.8596V42.3743C45.8596 42.5847 45.8182 42.793 45.7377 42.9874C45.6572 43.1818 45.5392 43.3584 45.3904 43.5071C45.2416 43.6559 45.065 43.7739 44.8707 43.8544C44.6763 43.9349 44.468 43.9763 44.2576 43.9763H16.7446C16.3197 43.9763 15.9122 43.8076 15.6118 43.5071C15.3114 43.2067 15.1426 42.7992 15.1426 42.3743V38.8564Z" fill="#FFFDFA"/>
</svg>
