<svg width="62" height="62" viewBox="0 0 62 62" fill="none" xmlns="http://www.w3.org/2000/svg">
<rect width="62" height="62" rx="20" fill="#503BE1"/>
<path d="M52 31.1529C52 25.5498 47.4416 20.9915 41.8386 20.9915C39.1243 20.9915 36.5726 22.0484 34.6534 23.9677L24.3147 34.3063C23.4725 35.1485 22.3526 35.6124 21.1614 35.6124C18.7023 35.6124 16.7018 33.6119 16.7018 31.1529C16.7018 28.6938 18.7023 26.6933 21.1614 26.6933C22.3526 26.6933 23.4725 27.1572 24.3148 27.9996L25.7694 29.4542L29.8013 25.4224L28.3465 23.9677C26.4273 22.0484 23.8756 20.9915 21.1614 20.9915C15.5584 20.9915 11 25.5498 11 31.1529C11 36.756 15.5584 41.3143 21.1614 41.3143C23.8757 41.3143 26.4274 40.2574 28.3466 38.3381L38.6853 27.9994C39.5275 27.1571 40.6474 26.6933 41.8386 26.6933C44.2977 26.6933 46.2982 28.6938 46.2982 31.1528C46.2982 33.6118 44.2977 35.6124 41.8386 35.6124C40.6473 35.6124 39.5274 35.1485 38.6852 34.306L37.2306 32.8514L33.1987 36.8832L34.6534 38.3379C36.5727 40.2571 39.1244 41.3142 41.8386 41.3142C47.4416 41.3143 52 36.756 52 31.1529Z" fill="#FFFDFA"/>
</svg>
